<?xml version="1.0" encoding="utf-8"?>
<!-- Generator: Adobe Illustrator 18.1.1, SVG Export Plug-In . SVG Version: 6.00 Build 0)  -->
<svg version="1.1" id="Layer_1" xmlns="http://www.w3.org/2000/svg" xmlns:xlink="http://www.w3.org/1999/xlink" x="0px" y="0px"
	 viewBox="0 0 30 30" enable-background="new 0 0 30 30" xml:space="preserve">
<g>
	<path fill="#F4EA00" d="M15,19.2c0.9-1.1,1.4-2.6,1.4-4.2c0-1.8-0.7-3.2-1.5-4.2C14,12,13.5,13.5,13.5,15
		C13.5,16.8,14.3,18.2,15,19.2z"/>
	<path fill="#F4EA00" d="M10.6,21.6c0.1,0,0.2,0,0.3,0c0.1,0,0.3,0,0.4-0.1c0.1,0,0.3-0.1,0.4-0.1c0.1,0,0.1,0,0.2-0.1
		c0.8-0.2,1.5-0.6,2.1-1.1C12.7,18.7,12,16.9,12,15c0-2,0.7-3.8,1.9-5.2c-0.6-0.5-1.4-0.9-2.1-1.1c-0.1,0-0.1,0-0.2,0
		c-0.1,0-0.3-0.1-0.4-0.1c-0.1,0-0.2,0-0.4-0.1c-0.1,0-0.2,0-0.3,0c-0.2,0-0.4,0-0.7,0c-1.6,0-3,0.5-4.1,1.4C7,11.4,7.6,13.1,7.6,15
		c0,2-0.7,3.8-1.8,5.2c1.1,0.9,2.6,1.4,4.1,1.4C10.1,21.7,10.3,21.6,10.6,21.6z"/>
	<path fill="#F4EA00" d="M25.3,10.9C25.3,10.9,25.3,10.8,25.3,10.9c-1,1.2-1.4,2.6-1.4,4.1c0,1.8,0.7,3.1,1.5,4.1
		c0.7-0.9,1.2-2,1.4-3.2c0-0.3,0.1-0.6,0.1-0.9c0-0.2,0-0.4,0-0.7C26.6,12.9,25.9,11.7,25.3,10.9z"/>
	<path fill="#F4EA00" d="M4.7,10.9c-0.1,0.1-0.2,0.3-0.3,0.4c0,0,0,0.1-0.1,0.1c-0.2,0.3-0.4,0.6-0.5,0.9c0,0.1-0.1,0.2-0.1,0.2
		c-0.1,0.2-0.1,0.3-0.2,0.5c-0.1,0.2-0.1,0.5-0.2,0.8c0,0.1,0,0.2,0,0.3c0,0.3-0.1,0.6-0.1,1c0,0.2,0,0.4,0,0.7
		c0.1,1.5,0.8,2.6,1.4,3.5c0,0,0,0,0,0c0.9-1.1,1.4-2.6,1.4-4.2C6.1,13.3,5.4,11.9,4.7,10.9z"/>
	<path fill="#F4EA00" d="M26,0.4H4C2,0.4,0.4,2,0.4,4v22c0,2,1.6,3.7,3.7,3.7H26c2,0,3.7-1.6,3.7-3.7V4C29.6,2,28,0.4,26,0.4z
		 M25.8,20.8l-0.5,0.5l0,0c-1.4,1.1-3.2,1.8-5.1,1.8c-1.9,0-3.7-0.6-5.1-1.8c-0.5,0.4-1.1,0.8-1.7,1.1c0,0,0,0-0.1,0
		c-0.2,0.1-0.3,0.1-0.5,0.2c-0.1,0-0.2,0.1-0.3,0.1c-0.1,0-0.2,0.1-0.4,0.1c-0.1,0-0.3,0.1-0.4,0.1c-0.1,0-0.2,0-0.3,0.1
		c-0.2,0-0.3,0.1-0.5,0.1c-0.1,0-0.2,0-0.3,0c-0.3,0-0.5,0-0.8,0c-2,0-3.8-0.7-5.2-1.9l-0.1,0.1l-0.5-0.5c-0.2-0.2-0.4-0.5-0.6-0.7
		c-1-1.2-1.6-2.7-1.8-4.3c0-0.3,0-0.5,0-0.8c0-2.2,0.8-4.2,2.4-5.8l0.6-0.6l0.1,0.1C6.2,7.5,8,6.8,9.9,6.8c0.3,0,0.5,0,0.8,0
		c0.1,0,0.2,0,0.3,0c0.2,0,0.3,0,0.5,0.1c0.1,0,0.2,0,0.3,0.1c0.1,0,0.3,0.1,0.4,0.1c0.1,0,0.2,0.1,0.4,0.1c0.1,0,0.2,0.1,0.3,0.1
		c0.2,0.1,0.3,0.1,0.5,0.2c0,0,0,0,0.1,0c0.6,0.3,1.2,0.6,1.7,1l0,0l0,0c1.4-1.2,3.2-1.8,5.1-1.8c2,0,3.7,0.7,5.1,1.8l0.1-0.1
		l0.5,0.6c0.2,0.2,0.4,0.5,0.6,0.7c1,1.2,1.6,2.7,1.8,4.3c0,0.3,0,0.5,0,0.8C28.2,17.3,27.4,19.4,25.8,20.8z"/>
	<path fill="#F4EA00" d="M22.4,15c0-2,0.6-3.7,1.9-5.2c-1.1-0.9-2.6-1.4-4.1-1.4c-1.5,0-2.9,0.5-4,1.4C17.3,11.2,18,13,18,15
		c0,2-0.7,3.8-1.9,5.3c1.1,0.9,2.5,1.4,4,1.4c1.6,0,3-0.5,4.1-1.4C23,18.6,22.4,16.9,22.4,15z"/>
</g>
</svg>
