<?xml version="1.0" encoding="utf-8"?>
<!-- Generator: Adobe Illustrator 18.1.1, SVG Export Plug-In . SVG Version: 6.00 Build 0)  -->
<svg version="1.1" id="Layer_1" xmlns="http://www.w3.org/2000/svg" xmlns:xlink="http://www.w3.org/1999/xlink" x="0px" y="0px"
	 viewBox="0 0 30 30" enable-background="new 0 0 30 30" xml:space="preserve">
<path fill="#F4EA00" d="M26,0.4H4C2,0.4,0.4,2,0.4,4V26c0,2,1.6,3.7,3.7,3.7H26c2,0,3.7-1.6,3.7-3.7V4C29.6,2,28,0.4,26,0.4z
	 M24.3,10C24.3,10,24.3,10,24.3,10c-0.7,0.3,0.7,4.5-3.3,9.5c0,0-3,4-8.6,4.8c-2.3,0.3-5.6,0.6-9-1.9c0,0,3.4,0.4,6.8-2.1
	c0,0-3.5-0.3-4.3-3.2c0,0,1.6,0,1.9,0c0,0-3.7-1.3-3.7-4.8c0,0,1.3,0.6,2,0.5c0,0-3.2-2.4-1.3-6.3c0,0,3.4,4.8,9.7,4.9
	c0,0-0.5-4.1,3.1-5.4c0,0,3.1-1.3,5.1,1.1c0,0,2.4-0.4,2.9-1.1c0,0-0.1,1.5-1.8,2.5c0,0,1.5,0,2.6-0.6C26.5,7.8,25,9.7,24.3,10z"/>
</svg>
